<svg width="50" height="50" viewBox="0 0 50 50" fill="none" xmlns="http://www.w3.org/2000/svg">
<path d="M21.1874 39.5833C21.4987 39.5844 21.8062 39.5157 22.0874 39.3823C22.3686 39.2489 22.6164 39.0542 22.8124 38.8125L32.8749 26.3125C33.1814 25.9397 33.3489 25.4721 33.3489 24.9896C33.3489 24.507 33.1814 24.0394 32.8749 23.6667L22.4583 11.1667C22.1047 10.7412 21.5965 10.4737 21.0456 10.4229C20.4947 10.3721 19.9462 10.5422 19.5208 10.8958C19.0953 11.2495 18.8278 11.7576 18.777 12.3085C18.7262 12.8594 18.8963 13.4079 19.2499 13.8333L28.5624 25L19.5624 36.1667C19.3077 36.4725 19.1459 36.8448 19.0961 37.2397C19.0464 37.6346 19.1108 38.0355 19.2817 38.3949C19.4527 38.7544 19.723 39.0573 20.0607 39.2679C20.3985 39.4785 20.7895 39.588 21.1874 39.5833Z" fill="white"/>
</svg>
